<svg xmlns="http://www.w3.org/2000/svg" width="100" height="100" viewBox="-26 -26 100 100"><circle fill="#D4AF37" cx="24" cy="19.358" r="45.215"/><path fill="#FFF" d="M41.107 34.666c0 2.556.157 5.445.466 8.663-3.064-.134-8.232-.196-15.507-.196-8.662 0-15.209.062-19.64.196V41.97c1.631-.064 2.815-.239 3.555-.523.737-.291 1.246-.82 1.521-1.59.278-.771.414-2.009.414-3.704V2.562c0-1.697-.136-2.931-.414-3.705-.274-.77-.783-1.299-1.521-1.588-.739-.283-1.924-.46-3.555-.528v-1.355c4.43.133 10.978.2 19.64.2 6.634 0 11.353-.067 14.151-.2-.309 2.955-.459 5.623-.459 8.002 0 1.764.063 3.166.195 4.2h-1.555c-.329-2.933-.745-5.113-1.242-6.547-.494-1.433-1.335-2.476-2.513-3.125-1.176-.65-2.956-.976-5.339-.976h-5.619c-1.631 0-2.818.132-3.555.396-.739.265-1.246.779-1.52 1.538-.274.761-.414 1.991-.414 3.688v15.969h4.499c2.268 0 3.775-.676 4.527-2.034.749-1.354 1.211-2.736 1.388-4.147.178-1.411.299-2.328.367-2.746h1.551a93.802 93.802 0 0 0-.23 6.381l.033 3.24c0 2.292.134 5.5.395 9.622h-1.553c-.041-.309-.169-1.398-.381-3.272-.208-1.875-.82-3.293-1.835-4.251-1.014-.957-2.437-1.436-4.262-1.436h-4.499v16.265c0 1.695.14 2.927.414 3.689.274.76.781 1.269 1.52 1.534.737.266 1.924.397 3.555.397h4.959c2.82 0 4.962-.373 6.431-1.124 1.464-.75 2.521-1.951 3.17-3.604.653-1.654 1.151-4.076 1.512-7.273h1.551c-.13 1.213-.201 2.842-.201 4.894z"/><path fill="#D4AF37" d="M31.1 63.569L24 72.481l-7.1-8.912"/></svg>